<?xml version="1.0" encoding="UTF-8" standalone="no"?>
<!DOCTYPE svg PUBLIC "-//W3C//DTD SVG 1.1//EN"
 "http://www.w3.org/Graphics/SVG/1.1/DTD/svg11.dtd">
<!-- Generated by graphviz version 2.38.0 (20140413.2041)
 -->
<!-- Title: safe_vault Pages: 1 -->
<svg width="2882pt" height="620pt"
 viewBox="0.00 0.00 2882.14 620.00" xmlns="http://www.w3.org/2000/svg" xmlns:xlink="http://www.w3.org/1999/xlink">
<g id="graph0" class="graph" transform="scale(1 1) rotate(0) translate(4 616)">
<title>safe_vault</title>
<polygon fill="white" stroke="none" points="-4,4 -4,-616 2878.14,-616 2878.14,4 -4,4"/>
<!-- N0 -->
<g id="node1" class="node"><title>N0</title>
<ellipse fill="none" stroke="black" cx="1189.54" cy="-594" rx="46.5926" ry="18"/>
<text text-anchor="middle" x="1189.54" y="-590.3" font-family="Times,serif" font-size="14.00">safe_vault</text>
</g>
<!-- N3 -->
<g id="node4" class="node"><title>N3</title>
<ellipse fill="none" stroke="black" cx="1526.54" cy="-450" rx="27.8951" ry="18"/>
<text text-anchor="middle" x="1526.54" y="-446.3" font-family="Times,serif" font-size="14.00">crust</text>
</g>
<!-- N0&#45;&gt;N3 -->
<g id="edge97" class="edge"><title>N0&#45;&gt;N3</title>
<path fill="none" stroke="black" d="M1220.05,-580.148C1283.54,-553.394 1429.39,-491.936 1494.34,-464.572"/>
<polygon fill="black" stroke="black" points="1495.82,-467.745 1503.68,-460.636 1493.1,-461.294 1495.82,-467.745"/>
</g>
<!-- N8 -->
<g id="node9" class="node"><title>N8</title>
<ellipse fill="none" stroke="black" cx="2646.54" cy="-162" rx="27" ry="18"/>
<text text-anchor="middle" x="2646.54" y="-158.3" font-family="Times,serif" font-size="14.00">time</text>
</g>
<!-- N0&#45;&gt;N8 -->
<g id="edge87" class="edge"><title>N0&#45;&gt;N8</title>
<path fill="none" stroke="black" d="M1236.64,-593.21C1481.6,-594.06 2604.37,-594.912 2748.54,-540 2806.35,-517.984 2855.54,-512.856 2855.54,-451 2855.54,-451 2855.54,-451 2855.54,-377 2855.54,-294.141 2822.9,-271.693 2761.54,-216 2738.51,-195.091 2705.81,-181.104 2681.16,-172.775"/>
<polygon fill="black" stroke="black" points="2682.07,-169.39 2671.47,-169.651 2679.92,-176.052 2682.07,-169.39"/>
</g>
<!-- N9 -->
<g id="node10" class="node"><title>N9</title>
<ellipse fill="none" stroke="black" cx="405.545" cy="-90" rx="59.5901" ry="18"/>
<text text-anchor="middle" x="405.545" y="-86.3" font-family="Times,serif" font-size="14.00">rustc&#45;serialize</text>
</g>
<!-- N0&#45;&gt;N9 -->
<g id="edge96" class="edge"><title>N0&#45;&gt;N9</title>
<path fill="none" stroke="black" d="M1142.52,-592.971C1045.57,-591.946 817.001,-584.541 631.545,-540 546.962,-519.686 526.343,-508.854 449.545,-468 399.589,-441.425 374.307,-444.125 344.545,-396 327.552,-368.523 336.773,-356.23 334.545,-324 328.992,-243.649 315.522,-213.895 355.545,-144 361.671,-133.302 370.378,-123.069 378.814,-114.496"/>
<polygon fill="black" stroke="black" points="381.36,-116.903 386.086,-107.421 376.478,-111.886 381.36,-116.903"/>
</g>
<!-- N11 -->
<g id="node12" class="node"><title>N11</title>
<ellipse fill="none" stroke="black" cx="1358.54" cy="-90" rx="27" ry="18"/>
<text text-anchor="middle" x="1358.54" y="-86.3" font-family="Times,serif" font-size="14.00">log</text>
</g>
<!-- N0&#45;&gt;N11 -->
<g id="edge90" class="edge"><title>N0&#45;&gt;N11</title>
<path fill="none" stroke="black" d="M1143.75,-590.095C1018.32,-580.896 678.545,-547.105 678.545,-451 678.545,-451 678.545,-451 678.545,-377 678.545,-217.483 800.258,-194.575 951.545,-144 1082.62,-100.18 1248.71,-92.3369 1321.52,-91.1088"/>
<polygon fill="black" stroke="black" points="1321.61,-94.6079 1331.57,-90.9721 1321.52,-87.6086 1321.61,-94.6079"/>
</g>
<!-- N15 -->
<g id="node16" class="node"><title>N15</title>
<ellipse fill="none" stroke="black" cx="888.545" cy="-378" rx="27" ry="18"/>
<text text-anchor="middle" x="888.545" y="-374.3" font-family="Times,serif" font-size="14.00">cbor</text>
</g>
<!-- N0&#45;&gt;N15 -->
<g id="edge88" class="edge"><title>N0&#45;&gt;N15</title>
<path fill="none" stroke="black" d="M1165.98,-578.195C1129.96,-555.374 1059.31,-509.851 1001.54,-468 970.206,-445.296 935.4,-417.466 912.81,-399.036"/>
<polygon fill="black" stroke="black" points="915.023,-396.325 905.068,-392.698 910.589,-401.741 915.023,-396.325"/>
</g>
<!-- N16 -->
<g id="node17" class="node"><title>N16</title>
<ellipse fill="none" stroke="black" cx="2458.54" cy="-234" rx="27" ry="18"/>
<text text-anchor="middle" x="2458.54" y="-230.3" font-family="Times,serif" font-size="14.00">rand</text>
</g>
<!-- N0&#45;&gt;N16 -->
<g id="edge94" class="edge"><title>N0&#45;&gt;N16</title>
<path fill="none" stroke="black" d="M1236.57,-593.189C1488.57,-593.977 2669.67,-594.736 2722.54,-540 2807.95,-451.588 2707.94,-360.328 2608.54,-288 2574.09,-262.925 2526.67,-248.823 2494.44,-241.576"/>
<polygon fill="black" stroke="black" points="2495.05,-238.128 2484.54,-239.458 2493.59,-244.973 2495.05,-238.128"/>
</g>
<!-- N17 -->
<g id="node18" class="node"><title>N17</title>
<ellipse fill="none" stroke="black" cx="600.545" cy="-306" rx="50.0912" ry="18"/>
<text text-anchor="middle" x="600.545" y="-302.3" font-family="Times,serif" font-size="14.00">env_logger</text>
</g>
<!-- N0&#45;&gt;N17 -->
<g id="edge89" class="edge"><title>N0&#45;&gt;N17</title>
<path fill="none" stroke="black" d="M1143.19,-591.282C1021.66,-586.367 700.753,-570.601 664.545,-540 603.333,-488.267 597.84,-383.98 598.993,-334.393"/>
<polygon fill="black" stroke="black" points="602.5,-334.242 599.347,-324.127 595.504,-334.001 602.5,-334.242"/>
</g>
<!-- N23 -->
<g id="node24" class="node"><title>N23</title>
<ellipse fill="none" stroke="black" cx="2495.54" cy="-306" rx="65.7887" ry="18"/>
<text text-anchor="middle" x="2495.54" y="-302.3" font-family="Times,serif" font-size="14.00">lru_time_cache</text>
</g>
<!-- N0&#45;&gt;N23 -->
<g id="edge93" class="edge"><title>N0&#45;&gt;N23</title>
<path fill="none" stroke="black" d="M1235.54,-590.34C1469.67,-576.32 2521.49,-507.401 2608.54,-396 2618.4,-383.393 2617.13,-373.504 2608.54,-360 2596.61,-341.212 2576.05,-328.969 2555.72,-321.042"/>
<polygon fill="black" stroke="black" points="2556.71,-317.678 2546.11,-317.592 2554.34,-324.266 2556.71,-317.678"/>
</g>
<!-- N48 -->
<g id="node49" class="node"><title>N48</title>
<ellipse fill="none" stroke="black" cx="56.545" cy="-162" rx="56.59" ry="18"/>
<text text-anchor="middle" x="56.545" y="-158.3" font-family="Times,serif" font-size="14.00">sodiumoxide</text>
</g>
<!-- N0&#45;&gt;N48 -->
<g id="edge91" class="edge"><title>N0&#45;&gt;N48</title>
<path fill="none" stroke="black" d="M1142.76,-592.712C955.919,-591.268 269.099,-583.053 182.545,-540 136.23,-516.963 107.545,-502.728 107.545,-451 107.545,-451 107.545,-451 107.545,-305 107.545,-262.354 86.9186,-216.519 71.9007,-188.8"/>
<polygon fill="black" stroke="black" points="74.7977,-186.809 66.8656,-179.785 68.6864,-190.222 74.7977,-186.809"/>
</g>
<!-- N53 -->
<g id="node54" class="node"><title>N53</title>
<ellipse fill="none" stroke="black" cx="2675.54" cy="-522" rx="38.1938" ry="18"/>
<text text-anchor="middle" x="2675.54" y="-518.3" font-family="Times,serif" font-size="14.00">tempdir</text>
</g>
<!-- N0&#45;&gt;N53 -->
<g id="edge92" class="edge"><title>N0&#45;&gt;N53</title>
<path fill="none" stroke="black" d="M1236.47,-593.02C1451.98,-592.844 2348.09,-589.117 2623.54,-540 2627.98,-539.21 2632.55,-538.129 2637.06,-536.893"/>
<polygon fill="black" stroke="black" points="2638.18,-540.211 2646.76,-533.99 2636.18,-533.505 2638.18,-540.211"/>
</g>
<!-- N54 -->
<g id="node55" class="node"><title>N54</title>
<ellipse fill="none" stroke="black" cx="1189.54" cy="-522" rx="36.2938" ry="18"/>
<text text-anchor="middle" x="1189.54" y="-518.3" font-family="Times,serif" font-size="14.00">routing</text>
</g>
<!-- N0&#45;&gt;N54 -->
<g id="edge95" class="edge"><title>N0&#45;&gt;N54</title>
<path fill="none" stroke="black" d="M1189.54,-575.697C1189.54,-567.983 1189.54,-558.712 1189.54,-550.112"/>
<polygon fill="black" stroke="black" points="1193.05,-550.104 1189.54,-540.104 1186.05,-550.104 1193.05,-550.104"/>
</g>
<!-- N1 -->
<g id="node2" class="node"><title>N1</title>
<ellipse fill="none" stroke="black" cx="2376.54" cy="-234" rx="37.0935" ry="18"/>
<text text-anchor="middle" x="2376.54" y="-230.3" font-family="Times,serif" font-size="14.00">bitflags</text>
</g>
<!-- N2 -->
<g id="node3" class="node"><title>N2</title>
<ellipse fill="none" stroke="black" cx="1959.54" cy="-234" rx="38.1938" ry="18"/>
<text text-anchor="middle" x="1959.54" y="-230.3" font-family="Times,serif" font-size="14.00">httparse</text>
</g>
<!-- N4 -->
<g id="node5" class="node"><title>N4</title>
<ellipse fill="none" stroke="black" cx="1430.54" cy="-18" rx="27" ry="18"/>
<text text-anchor="middle" x="1430.54" y="-14.3" font-family="Times,serif" font-size="14.00">libc</text>
</g>
<!-- N3&#45;&gt;N4 -->
<g id="edge1" class="edge"><title>N3&#45;&gt;N4</title>
<path fill="none" stroke="black" d="M1523.57,-431.921C1520.43,-413.991 1515.28,-384.988 1510.54,-360 1492.33,-263.826 1491.02,-239.028 1467.54,-144 1459.05,-109.626 1447.12,-70.5823 1439.13,-45.4137"/>
<polygon fill="black" stroke="black" points="1442.45,-44.3062 1436.07,-35.8493 1435.78,-46.4403 1442.45,-44.3062"/>
</g>
<!-- N5 -->
<g id="node6" class="node"><title>N5</title>
<ellipse fill="none" stroke="black" cx="1600.54" cy="-378" rx="27" ry="18"/>
<text text-anchor="middle" x="1600.54" y="-374.3" font-family="Times,serif" font-size="14.00">igd</text>
</g>
<!-- N3&#45;&gt;N5 -->
<g id="edge2" class="edge"><title>N3&#45;&gt;N5</title>
<path fill="none" stroke="black" d="M1541.88,-434.496C1552.37,-424.575 1566.44,-411.262 1578.17,-400.163"/>
<polygon fill="black" stroke="black" points="1580.63,-402.661 1585.48,-393.246 1575.82,-397.575 1580.63,-402.661"/>
</g>
<!-- N6 -->
<g id="node7" class="node"><title>N6</title>
<ellipse fill="none" stroke="black" cx="1189.54" cy="-378" rx="44.393" ry="18"/>
<text text-anchor="middle" x="1189.54" y="-374.3" font-family="Times,serif" font-size="14.00">temp_utp</text>
</g>
<!-- N3&#45;&gt;N6 -->
<g id="edge3" class="edge"><title>N3&#45;&gt;N6</title>
<path fill="none" stroke="black" d="M1499.28,-445.082C1448.39,-437.512 1335.67,-419.525 1242.54,-396 1239.12,-395.134 1235.58,-394.167 1232.05,-393.147"/>
<polygon fill="black" stroke="black" points="1232.74,-389.701 1222.15,-390.17 1230.72,-396.404 1232.74,-389.701"/>
</g>
<!-- N7 -->
<g id="node8" class="node"><title>N7</title>
<ellipse fill="none" stroke="black" cx="2551.54" cy="-378" rx="48.1917" ry="18"/>
<text text-anchor="middle" x="2551.54" y="-374.3" font-family="Times,serif" font-size="14.00">crossbeam</text>
</g>
<!-- N3&#45;&gt;N7 -->
<g id="edge4" class="edge"><title>N3&#45;&gt;N7</title>
<path fill="none" stroke="black" d="M1554.5,-448.264C1692.56,-444.508 2302.38,-426.454 2489.54,-396 2494.92,-395.126 2500.49,-393.969 2505.99,-392.667"/>
<polygon fill="black" stroke="black" points="2506.93,-396.041 2515.77,-390.199 2505.21,-389.254 2506.93,-396.041"/>
</g>
<!-- N3&#45;&gt;N8 -->
<g id="edge5" class="edge"><title>N3&#45;&gt;N8</title>
<path fill="none" stroke="black" d="M1554.58,-448.512C1714.29,-445.615 2505.77,-429.643 2608.54,-396 2663.72,-377.938 2690.04,-375.131 2717.54,-324 2740.28,-281.728 2739.06,-258.908 2717.54,-216 2709.15,-199.261 2692.69,-186.457 2677.72,-177.631"/>
<polygon fill="black" stroke="black" points="2679.13,-174.412 2668.69,-172.65 2675.75,-180.542 2679.13,-174.412"/>
</g>
<!-- N3&#45;&gt;N9 -->
<g id="edge6" class="edge"><title>N3&#45;&gt;N9</title>
<path fill="none" stroke="black" d="M1498.15,-449.219C1432.42,-448.864 1265.6,-442.991 1136.54,-396 1108.39,-385.748 932.753,-269.657 908.545,-252 848.133,-207.937 848.203,-173.617 779.545,-144 654.212,-89.935 608.848,-132.373 474.545,-108 469.441,-107.074 464.152,-105.993 458.877,-104.834"/>
<polygon fill="black" stroke="black" points="459.33,-101.347 448.801,-102.527 457.768,-108.171 459.33,-101.347"/>
</g>
<!-- N10 -->
<g id="node11" class="node"><title>N10</title>
<ellipse fill="none" stroke="black" cx="2347.54" cy="-162" rx="27" ry="18"/>
<text text-anchor="middle" x="2347.54" y="-158.3" font-family="Times,serif" font-size="14.00">net2</text>
</g>
<!-- N3&#45;&gt;N10 -->
<g id="edge7" class="edge"><title>N3&#45;&gt;N10</title>
<path fill="none" stroke="black" d="M1554.39,-447.721C1659.89,-442.26 2044.28,-416.744 2344.54,-324 2345.65,-323.659 2493.93,-252.978 2494.54,-252 2503.07,-238.458 2503.74,-229.093 2494.54,-216 2469.88,-180.894 2419.6,-168.936 2384.75,-164.923"/>
<polygon fill="black" stroke="black" points="2384.77,-161.409 2374.48,-163.916 2384.09,-168.375 2384.77,-161.409"/>
</g>
<!-- N3&#45;&gt;N11 -->
<g id="edge8" class="edge"><title>N3&#45;&gt;N11</title>
<path fill="none" stroke="black" d="M1519.76,-432.499C1512.33,-414.559 1499.93,-385.089 1488.54,-360 1447.43,-269.418 1394.95,-163.581 1371.22,-116.186"/>
<polygon fill="black" stroke="black" points="1374.35,-114.616 1366.73,-107.246 1368.09,-117.754 1374.35,-114.616"/>
</g>
<!-- N12 -->
<g id="node13" class="node"><title>N12</title>
<ellipse fill="none" stroke="black" cx="2796.54" cy="-162" rx="27.0966" ry="18"/>
<text text-anchor="middle" x="2796.54" y="-158.3" font-family="Times,serif" font-size="14.00">term</text>
</g>
<!-- N3&#45;&gt;N12 -->
<g id="edge9" class="edge"><title>N3&#45;&gt;N12</title>
<path fill="none" stroke="black" d="M1554.46,-449.046C1707.22,-449.092 2443.02,-446.643 2663.54,-396 2772.42,-370.997 2842.69,-360.43 2869.54,-252 2873.39,-236.469 2876.81,-230.255 2869.54,-216 2860.75,-198.737 2843.4,-185.781 2827.83,-177.001"/>
<polygon fill="black" stroke="black" points="2829.42,-173.883 2818.94,-172.313 2826.15,-180.075 2829.42,-173.883"/>
</g>
<!-- N13 -->
<g id="node14" class="node"><title>N13</title>
<ellipse fill="none" stroke="black" cx="1439.54" cy="-378" rx="39.7935" ry="18"/>
<text text-anchor="middle" x="1439.54" y="-374.3" font-family="Times,serif" font-size="14.00">itertools</text>
</g>
<!-- N3&#45;&gt;N13 -->
<g id="edge10" class="edge"><title>N3&#45;&gt;N13</title>
<path fill="none" stroke="black" d="M1509.77,-435.503C1497.47,-425.606 1480.52,-411.964 1466.35,-400.564"/>
<polygon fill="black" stroke="black" points="1468.37,-397.699 1458.38,-394.157 1463.98,-403.152 1468.37,-397.699"/>
</g>
<!-- N14 -->
<g id="node15" class="node"><title>N14</title>
<ellipse fill="none" stroke="black" cx="747.545" cy="-378" rx="34.394" ry="18"/>
<text text-anchor="middle" x="747.545" y="-374.3" font-family="Times,serif" font-size="14.00">docopt</text>
</g>
<!-- N3&#45;&gt;N14 -->
<g id="edge11" class="edge"><title>N3&#45;&gt;N14</title>
<path fill="none" stroke="black" d="M1498.54,-447.623C1406.07,-442.901 1102.23,-425.978 852.545,-396 831.719,-393.5 808.703,-389.871 789.54,-386.608"/>
<polygon fill="black" stroke="black" points="790.067,-383.147 779.617,-384.893 788.874,-390.045 790.067,-383.147"/>
</g>
<!-- N3&#45;&gt;N15 -->
<g id="edge12" class="edge"><title>N3&#45;&gt;N15</title>
<path fill="none" stroke="black" d="M1498.63,-447.123C1387.56,-439.578 980.433,-411.137 924.545,-396 922.594,-395.471 920.618,-394.842 918.65,-394.141"/>
<polygon fill="black" stroke="black" points="919.588,-390.743 909.008,-390.183 916.93,-397.218 919.588,-390.743"/>
</g>
<!-- N3&#45;&gt;N16 -->
<g id="edge13" class="edge"><title>N3&#45;&gt;N16</title>
<path fill="none" stroke="black" d="M1550.37,-440.248C1625.75,-412.934 1866.26,-328.662 2072.54,-288 2225.97,-257.758 2271.91,-293.987 2422.54,-252 2424.49,-251.457 2426.46,-250.816 2428.43,-250.107"/>
<polygon fill="black" stroke="black" points="2430.16,-253.18 2438.07,-246.128 2427.49,-246.71 2430.16,-253.18"/>
</g>
<!-- N18 -->
<g id="node19" class="node"><title>N18</title>
<ellipse fill="none" stroke="black" cx="600.545" cy="-234" rx="30.5947" ry="18"/>
<text text-anchor="middle" x="600.545" y="-230.3" font-family="Times,serif" font-size="14.00">regex</text>
</g>
<!-- N5&#45;&gt;N18 -->
<g id="edge98" class="edge"><title>N5&#45;&gt;N18</title>
<path fill="none" stroke="black" d="M1574.34,-372.687C1551.67,-369.037 1518,-363.806 1488.54,-360 1339.16,-340.693 1300.55,-346.039 1151.54,-324 1066.52,-311.425 1046.3,-302.245 961.545,-288 845.026,-268.417 706.659,-249.235 640.136,-240.265"/>
<polygon fill="black" stroke="black" points="640.468,-236.778 630.09,-238.915 639.535,-243.716 640.468,-236.778"/>
</g>
<!-- N20 -->
<g id="node21" class="node"><title>N20</title>
<ellipse fill="none" stroke="black" cx="1578.54" cy="-306" rx="30.5947" ry="18"/>
<text text-anchor="middle" x="1578.54" y="-302.3" font-family="Times,serif" font-size="14.00">hyper</text>
</g>
<!-- N5&#45;&gt;N20 -->
<g id="edge99" class="edge"><title>N5&#45;&gt;N20</title>
<path fill="none" stroke="black" d="M1595.22,-360.055C1592.71,-352.059 1589.65,-342.331 1586.84,-333.4"/>
<polygon fill="black" stroke="black" points="1590.16,-332.28 1583.82,-323.789 1583.48,-334.378 1590.16,-332.28"/>
</g>
<!-- N21 -->
<g id="node22" class="node"><title>N21</title>
<ellipse fill="none" stroke="black" cx="1775.54" cy="-306" rx="34.394" ry="18"/>
<text text-anchor="middle" x="1775.54" y="-302.3" font-family="Times,serif" font-size="14.00">xml&#45;rs</text>
</g>
<!-- N5&#45;&gt;N21 -->
<g id="edge100" class="edge"><title>N5&#45;&gt;N21</title>
<path fill="none" stroke="black" d="M1623.06,-367.992C1652.6,-356.179 1704.76,-335.315 1739.74,-321.324"/>
<polygon fill="black" stroke="black" points="1741.13,-324.536 1749.11,-317.573 1738.53,-318.037 1741.13,-324.536"/>
</g>
<!-- N6&#45;&gt;N4 -->
<g id="edge56" class="edge"><title>N6&#45;&gt;N4</title>
<path fill="none" stroke="black" d="M1174.09,-360.776C1165.77,-350.952 1156.27,-337.702 1151.54,-324 1125.23,-247.638 1132.41,-211.641 1176.54,-144 1201.28,-106.1 1209.6,-95.0488 1248.54,-72 1294.62,-44.7288 1355.65,-30.714 1394.01,-24.1209"/>
<polygon fill="black" stroke="black" points="1394.89,-27.5229 1404.19,-22.4532 1393.76,-20.6148 1394.89,-27.5229"/>
</g>
<!-- N6&#45;&gt;N8 -->
<g id="edge59" class="edge"><title>N6&#45;&gt;N8</title>
<path fill="none" stroke="black" d="M1221.14,-365.291C1228.1,-363.156 1235.5,-361.221 1242.54,-360 1483.97,-318.18 2106.4,-381.65 2344.54,-324 2380.87,-315.206 2385.61,-301.291 2420.54,-288 2473.78,-267.745 2493.52,-279.242 2543.54,-252 2575.79,-234.439 2606.84,-205.41 2626.26,-185.302"/>
<polygon fill="black" stroke="black" points="2629.02,-187.48 2633.36,-177.814 2623.94,-182.665 2629.02,-187.48"/>
</g>
<!-- N6&#45;&gt;N11 -->
<g id="edge57" class="edge"><title>N6&#45;&gt;N11</title>
<path fill="none" stroke="black" d="M1221.3,-365.411C1249.35,-354.453 1287.08,-337.695 1295.54,-324 1337.64,-255.881 1251.65,-215.584 1287.54,-144 1295.94,-127.261 1312.4,-114.457 1327.37,-105.631"/>
<polygon fill="black" stroke="black" points="1329.34,-108.542 1336.4,-100.65 1325.96,-102.412 1329.34,-108.542"/>
</g>
<!-- N6&#45;&gt;N16 -->
<g id="edge55" class="edge"><title>N6&#45;&gt;N16</title>
<path fill="none" stroke="black" d="M1221.48,-365.538C1228.36,-363.415 1235.64,-361.422 1242.54,-360 1406.98,-326.168 1463.68,-388.792 1618.54,-324 1641.54,-314.38 1638.33,-297.063 1661.54,-288 1819.26,-226.44 2258.27,-292.938 2422.54,-252 2424.72,-251.457 2426.93,-250.778 2429.12,-250.006"/>
<polygon fill="black" stroke="black" points="2430.58,-253.192 2438.5,-246.161 2427.92,-246.715 2430.58,-253.192"/>
</g>
<!-- N6&#45;&gt;N17 -->
<g id="edge58" class="edge"><title>N6&#45;&gt;N17</title>
<path fill="none" stroke="black" d="M1148.34,-371.226C1123.03,-367.766 1089.94,-363.394 1060.54,-360 899.49,-341.407 858.169,-346.009 697.545,-324 683.369,-322.058 668.096,-319.568 653.957,-317.098"/>
<polygon fill="black" stroke="black" points="654.353,-313.613 643.895,-315.31 653.128,-320.505 654.353,-313.613"/>
</g>
<!-- N44 -->
<g id="node45" class="node"><title>N44</title>
<ellipse fill="none" stroke="black" cx="1187.54" cy="-306" rx="27" ry="18"/>
<text text-anchor="middle" x="1187.54" y="-302.3" font-family="Times,serif" font-size="14.00">num</text>
</g>
<!-- N6&#45;&gt;N44 -->
<g id="edge53" class="edge"><title>N6&#45;&gt;N44</title>
<path fill="none" stroke="black" d="M1189.05,-359.697C1188.83,-351.983 1188.57,-342.712 1188.32,-334.112"/>
<polygon fill="black" stroke="black" points="1191.82,-334 1188.03,-324.104 1184.82,-334.2 1191.82,-334"/>
</g>
<!-- N45 -->
<g id="node46" class="node"><title>N45</title>
<ellipse fill="none" stroke="black" cx="1259.54" cy="-306" rx="27" ry="18"/>
<text text-anchor="middle" x="1259.54" y="-302.3" font-family="Times,serif" font-size="14.00">nix</text>
</g>
<!-- N6&#45;&gt;N45 -->
<g id="edge54" class="edge"><title>N6&#45;&gt;N45</title>
<path fill="none" stroke="black" d="M1205.43,-361.116C1215.04,-351.508 1227.42,-339.128 1237.91,-328.634"/>
<polygon fill="black" stroke="black" points="1240.56,-330.939 1245.15,-321.393 1235.61,-325.989 1240.56,-330.939"/>
</g>
<!-- N8&#45;&gt;N4 -->
<g id="edge114" class="edge"><title>N8&#45;&gt;N4</title>
<path fill="none" stroke="black" d="M2619.72,-159.118C2523.19,-152.207 2197,-127.617 2154.54,-108 2133.43,-98.2416 2137.81,-81.4383 2116.54,-72 1998.92,-19.7901 1593.32,-17.9217 1467.84,-18.6388"/>
<polygon fill="black" stroke="black" points="1467.57,-15.1404 1457.6,-18.7069 1467.62,-22.1402 1467.57,-15.1404"/>
</g>
<!-- N25 -->
<g id="node26" class="node"><title>N25</title>
<ellipse fill="none" stroke="black" cx="2511.54" cy="-18" rx="34.394" ry="18"/>
<text text-anchor="middle" x="2511.54" y="-14.3" font-family="Times,serif" font-size="14.00">winapi</text>
</g>
<!-- N8&#45;&gt;N25 -->
<g id="edge115" class="edge"><title>N8&#45;&gt;N25</title>
<path fill="none" stroke="black" d="M2643.11,-144.076C2638.43,-124.673 2628.39,-92.8637 2609.54,-72 2593.28,-53.9886 2569.42,-40.9013 2549.31,-32.2379"/>
<polygon fill="black" stroke="black" points="2550.37,-28.8907 2539.79,-28.3381 2547.72,-35.3681 2550.37,-28.8907"/>
</g>
<!-- N30 -->
<g id="node31" class="node"><title>N30</title>
<ellipse fill="none" stroke="black" cx="2511.54" cy="-90" rx="55.7903" ry="18"/>
<text text-anchor="middle" x="2511.54" y="-86.3" font-family="Times,serif" font-size="14.00">kernel32&#45;sys</text>
</g>
<!-- N8&#45;&gt;N30 -->
<g id="edge116" class="edge"><title>N8&#45;&gt;N30</title>
<path fill="none" stroke="black" d="M2625.75,-150.216C2605.29,-139.606 2573.59,-123.173 2548.78,-110.307"/>
<polygon fill="black" stroke="black" points="2550.13,-107.067 2539.65,-105.57 2546.91,-113.281 2550.13,-107.067"/>
</g>
<!-- N10&#45;&gt;N4 -->
<g id="edge135" class="edge"><title>N10&#45;&gt;N4</title>
<path fill="none" stroke="black" d="M2321.27,-156.864C2267.64,-148.346 2141.75,-127.966 2036.54,-108 1959.81,-93.4371 1941.6,-84.7451 1864.54,-72 1718.22,-47.7968 1542.43,-29.6648 1467.4,-22.4357"/>
<polygon fill="black" stroke="black" points="1467.36,-18.9164 1457.08,-21.4488 1466.7,-25.8846 1467.36,-18.9164"/>
</g>
<!-- N24 -->
<g id="node25" class="node"><title>N24</title>
<ellipse fill="none" stroke="black" cx="2347.54" cy="-90" rx="51.9908" ry="18"/>
<text text-anchor="middle" x="2347.54" y="-86.3" font-family="Times,serif" font-size="14.00">ws2_32&#45;sys</text>
</g>
<!-- N10&#45;&gt;N24 -->
<g id="edge133" class="edge"><title>N10&#45;&gt;N24</title>
<path fill="none" stroke="black" d="M2347.54,-143.697C2347.54,-135.983 2347.54,-126.712 2347.54,-118.112"/>
<polygon fill="black" stroke="black" points="2351.05,-118.104 2347.54,-108.104 2344.05,-118.104 2351.05,-118.104"/>
</g>
<!-- N10&#45;&gt;N25 -->
<g id="edge132" class="edge"><title>N10&#45;&gt;N25</title>
<path fill="none" stroke="black" d="M2363.51,-147.458C2375.91,-136.857 2393.48,-121.669 2408.54,-108 2425.77,-92.3671 2429.07,-87.3615 2446.54,-72 2458.98,-61.0637 2473.2,-49.3822 2485.16,-39.7769"/>
<polygon fill="black" stroke="black" points="2487.4,-42.468 2493.03,-33.4934 2483.03,-36.9977 2487.4,-42.468"/>
</g>
<!-- N10&#45;&gt;N30 -->
<g id="edge134" class="edge"><title>N10&#45;&gt;N30</title>
<path fill="none" stroke="black" d="M2369.66,-151.559C2395.26,-140.636 2437.96,-122.408 2469.85,-108.799"/>
<polygon fill="black" stroke="black" points="2471.54,-111.881 2479.36,-104.736 2468.79,-105.443 2471.54,-111.881"/>
</g>
<!-- N55 -->
<g id="node56" class="node"><title>N55</title>
<ellipse fill="none" stroke="black" cx="2076.54" cy="-90" rx="30.5947" ry="18"/>
<text text-anchor="middle" x="2076.54" y="-86.3" font-family="Times,serif" font-size="14.00">cfg&#45;if</text>
</g>
<!-- N10&#45;&gt;N55 -->
<g id="edge136" class="edge"><title>N10&#45;&gt;N55</title>
<path fill="none" stroke="black" d="M2321.84,-156.113C2279.6,-147.83 2193.06,-129.791 2121.54,-108 2117.98,-106.914 2114.29,-105.69 2110.63,-104.409"/>
<polygon fill="black" stroke="black" points="2111.7,-101.073 2101.1,-100.941 2109.3,-107.65 2111.7,-101.073"/>
</g>
<!-- N11&#45;&gt;N4 -->
<g id="edge19" class="edge"><title>N11&#45;&gt;N4</title>
<path fill="none" stroke="black" d="M1373.12,-74.8345C1383.29,-64.9376 1397.07,-51.5462 1408.58,-40.3591"/>
<polygon fill="black" stroke="black" points="1411.02,-42.865 1415.75,-33.3847 1406.14,-37.8461 1411.02,-42.865"/>
</g>
<!-- N12&#45;&gt;N25 -->
<g id="edge31" class="edge"><title>N12&#45;&gt;N25</title>
<path fill="none" stroke="black" d="M2776.92,-149.418C2746.76,-131.81 2687.02,-97.6458 2634.54,-72 2605.77,-57.9384 2572.36,-43.6676 2547.63,-33.4822"/>
<polygon fill="black" stroke="black" points="2548.85,-30.2001 2538.27,-29.6521 2546.2,-36.6787 2548.85,-30.2001"/>
</g>
<!-- N12&#45;&gt;N30 -->
<g id="edge30" class="edge"><title>N12&#45;&gt;N30</title>
<path fill="none" stroke="black" d="M2771.25,-154.788C2725.05,-143.441 2626.12,-119.141 2564.58,-104.025"/>
<polygon fill="black" stroke="black" points="2565.21,-100.576 2554.66,-101.59 2563.54,-107.374 2565.21,-100.576"/>
</g>
<!-- N14&#45;&gt;N9 -->
<g id="edge27" class="edge"><title>N14&#45;&gt;N9</title>
<path fill="none" stroke="black" d="M713.354,-374.88C668.65,-370.77 589.253,-358.78 531.545,-324 455.612,-278.237 422.588,-169.26 410.909,-118.233"/>
<polygon fill="black" stroke="black" points="414.286,-117.29 408.733,-108.267 407.447,-118.784 414.286,-117.29"/>
</g>
<!-- N14&#45;&gt;N18 -->
<g id="edge26" class="edge"><title>N14&#45;&gt;N18</title>
<path fill="none" stroke="black" d="M714.056,-373.314C661.266,-366.737 562.531,-351.069 541.545,-324 531.742,-311.355 535.029,-302.613 541.545,-288 547.772,-274.035 559.698,-262.213 571.208,-253.302"/>
<polygon fill="black" stroke="black" points="573.388,-256.045 579.427,-247.34 569.278,-250.379 573.388,-256.045"/>
</g>
<!-- N28 -->
<g id="node29" class="node"><title>N28</title>
<ellipse fill="none" stroke="black" cx="738.545" cy="-306" rx="32.4942" ry="18"/>
<text text-anchor="middle" x="738.545" y="-302.3" font-family="Times,serif" font-size="14.00">strsim</text>
</g>
<!-- N14&#45;&gt;N28 -->
<g id="edge25" class="edge"><title>N14&#45;&gt;N28</title>
<path fill="none" stroke="black" d="M745.32,-359.697C744.328,-351.983 743.137,-342.712 742.031,-334.112"/>
<polygon fill="black" stroke="black" points="745.491,-333.576 740.744,-324.104 738.548,-334.469 745.491,-333.576"/>
</g>
<!-- N15&#45;&gt;N9 -->
<g id="edge28" class="edge"><title>N15&#45;&gt;N9</title>
<path fill="none" stroke="black" d="M862.786,-372.327C843.041,-368.795 815.102,-363.904 790.545,-360 680.115,-342.443 634.132,-386.696 541.545,-324 465.042,-272.195 484.536,-223.551 437.545,-144 432.271,-135.071 426.426,-125.344 421.191,-116.689"/>
<polygon fill="black" stroke="black" points="424.183,-114.872 416.005,-108.136 418.197,-118.501 424.183,-114.872"/>
</g>
<!-- N29 -->
<g id="node30" class="node"><title>N29</title>
<ellipse fill="none" stroke="black" cx="908.545" cy="-306" rx="44.393" ry="18"/>
<text text-anchor="middle" x="908.545" y="-302.3" font-family="Times,serif" font-size="14.00">byteorder</text>
</g>
<!-- N15&#45;&gt;N29 -->
<g id="edge29" class="edge"><title>N15&#45;&gt;N29</title>
<path fill="none" stroke="black" d="M893.386,-360.055C895.613,-352.261 898.31,-342.822 900.808,-334.079"/>
<polygon fill="black" stroke="black" points="904.227,-334.852 903.609,-324.275 897.497,-332.929 904.227,-334.852"/>
</g>
<!-- N16&#45;&gt;N4 -->
<g id="edge111" class="edge"><title>N16&#45;&gt;N4</title>
<path fill="none" stroke="black" d="M2437.97,-222.204C2433.01,-219.909 2427.67,-217.676 2422.54,-216 2362.52,-196.364 1926.13,-121.977 1864.54,-108 1802.73,-93.9705 1788.46,-85.5963 1726.54,-72 1633.61,-51.5908 1522.98,-33.3787 1466.95,-24.5796"/>
<polygon fill="black" stroke="black" points="1467.23,-21.0821 1456.81,-22.9976 1466.15,-27.9983 1467.23,-21.0821"/>
</g>
<!-- N16&#45;&gt;N25 -->
<g id="edge110" class="edge"><title>N16&#45;&gt;N25</title>
<path fill="none" stroke="black" d="M2476.94,-220.685C2504.74,-200.82 2556.37,-158.752 2576.54,-108 2582.45,-93.1313 2583.41,-86.453 2576.54,-72 2569.64,-57.4662 2556.59,-45.6046 2543.98,-36.8161"/>
<polygon fill="black" stroke="black" points="2545.69,-33.7542 2535.4,-31.2277 2541.87,-39.6191 2545.69,-33.7542"/>
</g>
<!-- N56 -->
<g id="node57" class="node"><title>N56</title>
<ellipse fill="none" stroke="black" cx="2220.54" cy="-90" rx="57.3905" ry="18"/>
<text text-anchor="middle" x="2220.54" y="-86.3" font-family="Times,serif" font-size="14.00">advapi32&#45;sys</text>
</g>
<!-- N16&#45;&gt;N56 -->
<g id="edge109" class="edge"><title>N16&#45;&gt;N56</title>
<path fill="none" stroke="black" d="M2437.42,-222.476C2432.58,-220.22 2427.43,-217.936 2422.54,-216 2374.33,-196.888 2355.92,-206.84 2311.54,-180 2283.29,-162.912 2257.02,-135.454 2240.04,-115.551"/>
<polygon fill="black" stroke="black" points="2242.67,-113.235 2233.57,-107.801 2237.29,-117.721 2242.67,-113.235"/>
</g>
<!-- N17&#45;&gt;N11 -->
<g id="edge14" class="edge"><title>N17&#45;&gt;N11</title>
<path fill="none" stroke="black" d="M623.606,-289.837C658.143,-266.92 725.067,-221.7 779.545,-180 799.337,-164.85 799.567,-153.655 822.545,-144 912.975,-106.002 1215.17,-94.6889 1321.3,-91.8429"/>
<polygon fill="black" stroke="black" points="1321.62,-95.3359 1331.53,-91.5789 1321.44,-88.3382 1321.62,-95.3359"/>
</g>
<!-- N17&#45;&gt;N18 -->
<g id="edge15" class="edge"><title>N17&#45;&gt;N18</title>
<path fill="none" stroke="black" d="M600.545,-287.697C600.545,-279.983 600.545,-270.712 600.545,-262.112"/>
<polygon fill="black" stroke="black" points="604.045,-262.104 600.545,-252.104 597.045,-262.104 604.045,-262.104"/>
</g>
<!-- N27 -->
<g id="node28" class="node"><title>N27</title>
<ellipse fill="none" stroke="black" cx="714.545" cy="-162" rx="55.7903" ry="18"/>
<text text-anchor="middle" x="714.545" y="-158.3" font-family="Times,serif" font-size="14.00">regex&#45;syntax</text>
</g>
<!-- N18&#45;&gt;N27 -->
<g id="edge65" class="edge"><title>N18&#45;&gt;N27</title>
<path fill="none" stroke="black" d="M620.926,-220.485C637.587,-210.255 661.488,-195.579 680.969,-183.617"/>
<polygon fill="black" stroke="black" points="682.877,-186.553 689.567,-178.337 679.214,-180.588 682.877,-186.553"/>
</g>
<!-- N41 -->
<g id="node42" class="node"><title>N41</title>
<ellipse fill="none" stroke="black" cx="523.545" cy="-90" rx="40.0939" ry="18"/>
<text text-anchor="middle" x="523.545" y="-86.3" font-family="Times,serif" font-size="14.00">memchr</text>
</g>
<!-- N18&#45;&gt;N41 -->
<g id="edge63" class="edge"><title>N18&#45;&gt;N41</title>
<path fill="none" stroke="black" d="M574.996,-224.007C555.92,-215.786 531.215,-201.583 519.545,-180 509.289,-161.032 511.39,-136.329 515.43,-117.762"/>
<polygon fill="black" stroke="black" points="518.868,-118.44 517.881,-107.892 512.074,-116.753 518.868,-118.44"/>
</g>
<!-- N47 -->
<g id="node48" class="node"><title>N47</title>
<ellipse fill="none" stroke="black" cx="584.545" cy="-162" rx="55.7903" ry="18"/>
<text text-anchor="middle" x="584.545" y="-158.3" font-family="Times,serif" font-size="14.00">aho&#45;corasick</text>
</g>
<!-- N18&#45;&gt;N47 -->
<g id="edge64" class="edge"><title>N18&#45;&gt;N47</title>
<path fill="none" stroke="black" d="M596.672,-216.055C594.89,-208.261 592.733,-198.822 590.734,-190.079"/>
<polygon fill="black" stroke="black" points="594.134,-189.244 588.494,-180.275 587.31,-190.804 594.134,-189.244"/>
</g>
<!-- N19 -->
<g id="node20" class="node"><title>N19</title>
<ellipse fill="none" stroke="black" cx="1278.54" cy="-378" rx="27" ry="18"/>
<text text-anchor="middle" x="1278.54" y="-374.3" font-family="Times,serif" font-size="14.00">igd</text>
</g>
<!-- N19&#45;&gt;N18 -->
<g id="edge18" class="edge"><title>N19&#45;&gt;N18</title>
<path fill="none" stroke="black" d="M1258.08,-365.836C1253.12,-363.556 1247.75,-361.422 1242.54,-360 1075.92,-314.429 1022.14,-369.67 855.545,-324 819.499,-314.118 814.457,-301.345 779.545,-288 731.673,-269.7 674.643,-253.786 638.035,-244.292"/>
<polygon fill="black" stroke="black" points="638.832,-240.883 628.276,-241.788 637.092,-247.663 638.832,-240.883"/>
</g>
<!-- N19&#45;&gt;N20 -->
<g id="edge16" class="edge"><title>N19&#45;&gt;N20</title>
<path fill="none" stroke="black" d="M1300.39,-367.036C1306.5,-364.498 1313.21,-361.942 1319.54,-360 1395.7,-336.655 1487.63,-320.605 1538.95,-312.688"/>
<polygon fill="black" stroke="black" points="1539.6,-316.129 1548.96,-311.167 1538.54,-309.209 1539.6,-316.129"/>
</g>
<!-- N19&#45;&gt;N21 -->
<g id="edge17" class="edge"><title>N19&#45;&gt;N21</title>
<path fill="none" stroke="black" d="M1304.78,-372.913C1327.47,-369.404 1361.15,-364.253 1390.54,-360 1407.34,-357.57 1635.48,-326.231 1732.44,-312.918"/>
<polygon fill="black" stroke="black" points="1733.07,-316.365 1742.5,-311.537 1732.11,-309.43 1733.07,-316.365"/>
</g>
<!-- N20&#45;&gt;N2 -->
<g id="edge81" class="edge"><title>N20&#45;&gt;N2</title>
<path fill="none" stroke="black" d="M1602.5,-294.749C1609.21,-292.21 1616.57,-289.725 1623.54,-288 1749.19,-256.91 1786.68,-282.201 1912.54,-252 1915.57,-251.274 1918.67,-250.419 1921.76,-249.483"/>
<polygon fill="black" stroke="black" points="1923.11,-252.725 1931.52,-246.288 1920.93,-246.073 1923.11,-252.725"/>
</g>
<!-- N20&#45;&gt;N8 -->
<g id="edge76" class="edge"><title>N20&#45;&gt;N8</title>
<path fill="none" stroke="black" d="M1602.43,-294.439C1609.14,-291.899 1616.52,-289.491 1623.54,-288 1898.33,-229.692 1982.35,-321.409 2254.54,-252 2290.76,-242.765 2294.89,-227.198 2330.54,-216 2428.67,-185.185 2549.9,-171.235 2609.67,-165.863"/>
<polygon fill="black" stroke="black" points="2610.09,-169.339 2619.75,-164.986 2609.48,-162.366 2610.09,-169.339"/>
</g>
<!-- N20&#45;&gt;N9 -->
<g id="edge72" class="edge"><title>N20&#45;&gt;N9</title>
<path fill="none" stroke="black" d="M1549.12,-301.138C1501.32,-294.358 1404.24,-278.466 1325.54,-252 1290.12,-240.086 1284.94,-227.996 1249.54,-216 1104.9,-166.983 1064.63,-166.288 913.545,-144 719.875,-115.431 667.757,-139.516 474.545,-108 469.218,-107.131 463.696,-106.063 458.202,-104.888"/>
<polygon fill="black" stroke="black" points="458.915,-101.461 448.391,-102.68 457.378,-108.29 458.915,-101.461"/>
</g>
<!-- N20&#45;&gt;N11 -->
<g id="edge78" class="edge"><title>N20&#45;&gt;N11</title>
<path fill="none" stroke="black" d="M1572.07,-288.116C1558.97,-256.011 1526.48,-185.657 1478.54,-144 1453.81,-122.503 1418.97,-108.427 1393.19,-100.222"/>
<polygon fill="black" stroke="black" points="1394.04,-96.821 1383.46,-97.2607 1392,-103.518 1394.04,-96.821"/>
</g>
<!-- N32 -->
<g id="node33" class="node"><title>N32</title>
<ellipse fill="none" stroke="black" cx="2185.54" cy="-234" rx="59.5901" ry="18"/>
<text text-anchor="middle" x="2185.54" y="-230.3" font-family="Times,serif" font-size="14.00">language&#45;tags</text>
</g>
<!-- N20&#45;&gt;N32 -->
<g id="edge80" class="edge"><title>N20&#45;&gt;N32</title>
<path fill="none" stroke="black" d="M1602.44,-294.513C1609.15,-291.973 1616.53,-289.547 1623.54,-288 1838.08,-240.689 1899.56,-286.4 2116.54,-252 2121.88,-251.155 2127.4,-250.102 2132.9,-248.937"/>
<polygon fill="black" stroke="black" points="2133.72,-252.341 2142.71,-246.74 2132.19,-245.51 2133.72,-252.341"/>
</g>
<!-- N33 -->
<g id="node34" class="node"><title>N33</title>
<ellipse fill="none" stroke="black" cx="1771.54" cy="-234" rx="40.0939" ry="18"/>
<text text-anchor="middle" x="1771.54" y="-230.3" font-family="Times,serif" font-size="14.00">typeable</text>
</g>
<!-- N20&#45;&gt;N33 -->
<g id="edge74" class="edge"><title>N20&#45;&gt;N33</title>
<path fill="none" stroke="black" d="M1603.74,-295.392C1610.19,-292.959 1617.12,-290.365 1623.54,-288 1659.9,-274.623 1701.45,-259.785 1731.25,-249.219"/>
<polygon fill="black" stroke="black" points="1732.62,-252.446 1740.88,-245.808 1730.28,-245.848 1732.62,-252.446"/>
</g>
<!-- N35 -->
<g id="node36" class="node"><title>N35</title>
<ellipse fill="none" stroke="black" cx="987.545" cy="-234" rx="47.3916" ry="18"/>
<text text-anchor="middle" x="987.545" y="-230.3" font-family="Times,serif" font-size="14.00">num_cpus</text>
</g>
<!-- N20&#45;&gt;N35 -->
<g id="edge73" class="edge"><title>N20&#45;&gt;N35</title>
<path fill="none" stroke="black" d="M1548.83,-301.481C1455.13,-290.382 1164.81,-255.995 1042.62,-241.524"/>
<polygon fill="black" stroke="black" points="1042.72,-238.011 1032.38,-240.31 1041.9,-244.962 1042.72,-238.011"/>
</g>
<!-- N36 -->
<g id="node37" class="node"><title>N36</title>
<ellipse fill="none" stroke="black" cx="1866.54" cy="-234" rx="37.0935" ry="18"/>
<text text-anchor="middle" x="1866.54" y="-230.3" font-family="Times,serif" font-size="14.00">unicase</text>
</g>
<!-- N20&#45;&gt;N36 -->
<g id="edge77" class="edge"><title>N20&#45;&gt;N36</title>
<path fill="none" stroke="black" d="M1603.04,-294.833C1609.62,-292.354 1616.79,-289.878 1623.54,-288 1709.3,-264.176 1734.7,-275.515 1820.54,-252 1823.32,-251.241 1826.16,-250.386 1829,-249.475"/>
<polygon fill="black" stroke="black" points="1830.24,-252.75 1838.58,-246.212 1827.98,-246.124 1830.24,-252.75"/>
</g>
<!-- N37 -->
<g id="node38" class="node"><title>N37</title>
<ellipse fill="none" stroke="black" cx="1677.54" cy="-162" rx="27" ry="18"/>
<text text-anchor="middle" x="1677.54" y="-158.3" font-family="Times,serif" font-size="14.00">url</text>
</g>
<!-- N20&#45;&gt;N37 -->
<g id="edge75" class="edge"><title>N20&#45;&gt;N37</title>
<path fill="none" stroke="black" d="M1588.36,-288.599C1599.36,-270.492 1617.96,-240.643 1635.54,-216 1642.75,-205.903 1651.16,-195.113 1658.56,-185.922"/>
<polygon fill="black" stroke="black" points="1661.41,-187.963 1665,-177.995 1655.98,-183.548 1661.41,-187.963"/>
</g>
<!-- N42 -->
<g id="node43" class="node"><title>N42</title>
<ellipse fill="none" stroke="black" cx="2061.54" cy="-234" rx="46.2923" ry="18"/>
<text text-anchor="middle" x="2061.54" y="-230.3" font-family="Times,serif" font-size="14.00">traitobject</text>
</g>
<!-- N20&#45;&gt;N42 -->
<g id="edge83" class="edge"><title>N20&#45;&gt;N42</title>
<path fill="none" stroke="black" d="M1602.46,-294.609C1609.17,-292.07 1616.55,-289.62 1623.54,-288 1790.11,-249.445 1838.87,-285.422 2006.54,-252 2010.4,-251.231 2014.38,-250.296 2018.34,-249.265"/>
<polygon fill="black" stroke="black" points="2019.4,-252.603 2028.09,-246.542 2017.51,-245.861 2019.4,-252.603"/>
</g>
<!-- N50 -->
<g id="node51" class="node"><title>N50</title>
<ellipse fill="none" stroke="black" cx="1678.54" cy="-234" rx="34.394" ry="18"/>
<text text-anchor="middle" x="1678.54" y="-230.3" font-family="Times,serif" font-size="14.00">cookie</text>
</g>
<!-- N20&#45;&gt;N50 -->
<g id="edge79" class="edge"><title>N20&#45;&gt;N50</title>
<path fill="none" stroke="black" d="M1597.83,-291.503C1612.71,-281.083 1633.53,-266.511 1650.29,-254.776"/>
<polygon fill="black" stroke="black" points="1652.45,-257.536 1658.64,-248.934 1648.44,-251.802 1652.45,-257.536"/>
</g>
<!-- N51 -->
<g id="node52" class="node"><title>N51</title>
<ellipse fill="none" stroke="black" cx="1366.54" cy="-234" rx="32.4942" ry="18"/>
<text text-anchor="middle" x="1366.54" y="-230.3" font-family="Times,serif" font-size="14.00">solicit</text>
</g>
<!-- N20&#45;&gt;N51 -->
<g id="edge82" class="edge"><title>N20&#45;&gt;N51</title>
<path fill="none" stroke="black" d="M1552.55,-296.417C1515.19,-284.08 1446.12,-261.276 1403.48,-247.194"/>
<polygon fill="black" stroke="black" points="1404.35,-243.798 1393.76,-243.986 1402.16,-250.445 1404.35,-243.798"/>
</g>
<!-- N52 -->
<g id="node53" class="node"><title>N52</title>
<ellipse fill="none" stroke="black" cx="1600.54" cy="-162" rx="31.6951" ry="18"/>
<text text-anchor="middle" x="1600.54" y="-158.3" font-family="Times,serif" font-size="14.00">mime</text>
</g>
<!-- N20&#45;&gt;N52 -->
<g id="edge84" class="edge"><title>N20&#45;&gt;N52</title>
<path fill="none" stroke="black" d="M1581.2,-287.871C1584.95,-263.67 1591.84,-219.211 1596.3,-190.393"/>
<polygon fill="black" stroke="black" points="1599.81,-190.607 1597.88,-180.189 1592.89,-189.535 1599.81,-190.607"/>
</g>
<!-- N21&#45;&gt;N1 -->
<g id="edge52" class="edge"><title>N21&#45;&gt;N1</title>
<path fill="none" stroke="black" d="M1809.37,-301.952C1925.21,-291.489 2300.18,-257.378 2325.54,-252 2329.76,-251.107 2334.11,-249.984 2338.41,-248.743"/>
<polygon fill="black" stroke="black" points="2339.75,-251.99 2348.27,-245.685 2337.68,-245.304 2339.75,-251.99"/>
</g>
<!-- N22 -->
<g id="node23" class="node"><title>N22</title>
<ellipse fill="none" stroke="black" cx="2354.54" cy="-378" rx="54.6905" ry="18"/>
<text text-anchor="middle" x="2354.54" y="-374.3" font-family="Times,serif" font-size="14.00">accumulator</text>
</g>
<!-- N22&#45;&gt;N8 -->
<g id="edge22" class="edge"><title>N22&#45;&gt;N8</title>
<path fill="none" stroke="black" d="M2396.87,-366.562C2405.69,-364.391 2414.92,-362.119 2423.54,-360 2488.87,-343.954 2513.49,-359.622 2570.54,-324 2605.88,-301.94 2612.94,-289.752 2630.54,-252 2639.6,-232.585 2643.55,-208.581 2645.26,-190.397"/>
<polygon fill="black" stroke="black" points="2648.77,-190.42 2646.05,-180.181 2641.79,-189.882 2648.77,-190.42"/>
</g>
<!-- N22&#45;&gt;N11 -->
<g id="edge21" class="edge"><title>N22&#45;&gt;N11</title>
<path fill="none" stroke="black" d="M2300.12,-376.48C2127.91,-374.42 1602.44,-364.821 1538.54,-324 1461.79,-274.958 1502.49,-210.786 1440.54,-144 1425.96,-128.27 1405.75,-115.14 1389.05,-105.883"/>
<polygon fill="black" stroke="black" points="1390.65,-102.774 1380.19,-101.147 1387.36,-108.947 1390.65,-102.774"/>
</g>
<!-- N22&#45;&gt;N23 -->
<g id="edge20" class="edge"><title>N22&#45;&gt;N23</title>
<path fill="none" stroke="black" d="M2383.42,-362.666C2404.38,-352.26 2432.99,-338.057 2456.06,-326.602"/>
<polygon fill="black" stroke="black" points="2457.85,-329.623 2465.25,-322.041 2454.73,-323.353 2457.85,-329.623"/>
</g>
<!-- N23&#45;&gt;N8 -->
<g id="edge34" class="edge"><title>N23&#45;&gt;N8</title>
<path fill="none" stroke="black" d="M2537.25,-292.013C2559.17,-283.483 2585.21,-270.443 2603.54,-252 2620.77,-234.667 2632.14,-209.078 2638.83,-189.781"/>
<polygon fill="black" stroke="black" points="2642.23,-190.663 2642,-180.071 2635.57,-188.494 2642.23,-190.663"/>
</g>
<!-- N23&#45;&gt;N16 -->
<g id="edge33" class="edge"><title>N23&#45;&gt;N16</title>
<path fill="none" stroke="black" d="M2486.59,-288.055C2482.21,-279.767 2476.84,-269.618 2471.98,-260.424"/>
<polygon fill="black" stroke="black" points="2474.93,-258.512 2467.16,-251.307 2468.74,-261.784 2474.93,-258.512"/>
</g>
<!-- N24&#45;&gt;N25 -->
<g id="edge23" class="edge"><title>N24&#45;&gt;N25</title>
<path fill="none" stroke="black" d="M2379.17,-75.5033C2407.01,-63.6172 2447.52,-46.3291 2476.38,-34.0107"/>
<polygon fill="black" stroke="black" points="2477.86,-37.1834 2485.68,-30.0386 2475.11,-30.7453 2477.86,-37.1834"/>
</g>
<!-- N26 -->
<g id="node27" class="node"><title>N26</title>
<ellipse fill="none" stroke="black" cx="2347.54" cy="-18" rx="55.7903" ry="18"/>
<text text-anchor="middle" x="2347.54" y="-14.3" font-family="Times,serif" font-size="14.00">winapi&#45;build</text>
</g>
<!-- N24&#45;&gt;N26 -->
<g id="edge24" class="edge"><title>N24&#45;&gt;N26</title>
<path fill="none" stroke="black" d="M2347.54,-71.6966C2347.54,-63.9827 2347.54,-54.7125 2347.54,-46.1124"/>
<polygon fill="black" stroke="black" points="2351.05,-46.1043 2347.54,-36.1043 2344.05,-46.1044 2351.05,-46.1043"/>
</g>
<!-- N30&#45;&gt;N25 -->
<g id="edge130" class="edge"><title>N30&#45;&gt;N25</title>
<path fill="none" stroke="black" d="M2511.54,-71.6966C2511.54,-63.9827 2511.54,-54.7125 2511.54,-46.1124"/>
<polygon fill="black" stroke="black" points="2515.05,-46.1043 2511.54,-36.1043 2508.05,-46.1044 2515.05,-46.1043"/>
</g>
<!-- N30&#45;&gt;N26 -->
<g id="edge131" class="edge"><title>N30&#45;&gt;N26</title>
<path fill="none" stroke="black" d="M2479.14,-75.1703C2453.42,-64.1926 2417.28,-48.7643 2389.37,-36.854"/>
<polygon fill="black" stroke="black" points="2390.45,-33.5077 2379.88,-32.801 2387.7,-39.9458 2390.45,-33.5077"/>
</g>
<!-- N31 -->
<g id="node32" class="node"><title>N31</title>
<ellipse fill="none" stroke="black" cx="1328.54" cy="-162" rx="31.6951" ry="18"/>
<text text-anchor="middle" x="1328.54" y="-158.3" font-family="Times,serif" font-size="14.00">hpack</text>
</g>
<!-- N31&#45;&gt;N11 -->
<g id="edge32" class="edge"><title>N31&#45;&gt;N11</title>
<path fill="none" stroke="black" d="M1335.65,-144.411C1339.2,-136.129 1343.58,-125.925 1347.55,-116.662"/>
<polygon fill="black" stroke="black" points="1350.76,-118.04 1351.49,-107.47 1344.33,-115.283 1350.76,-118.04"/>
</g>
<!-- N34 -->
<g id="node35" class="node"><title>N34</title>
<ellipse fill="none" stroke="black" cx="992.545" cy="-378" rx="59.2899" ry="18"/>
<text text-anchor="middle" x="992.545" y="-374.3" font-family="Times,serif" font-size="14.00">asynchronous</text>
</g>
<!-- N34&#45;&gt;N35 -->
<g id="edge35" class="edge"><title>N34&#45;&gt;N35</title>
<path fill="none" stroke="black" d="M991.942,-359.871C991.09,-335.67 989.524,-291.211 988.51,-262.393"/>
<polygon fill="black" stroke="black" points="992,-262.06 988.15,-252.189 985.004,-262.306 992,-262.06"/>
</g>
<!-- N35&#45;&gt;N4 -->
<g id="edge69" class="edge"><title>N35&#45;&gt;N4</title>
<path fill="none" stroke="black" d="M988.546,-215.865C991.495,-182.353 1003.09,-108.25 1048.54,-72 1101.37,-29.8696 1308.34,-21.227 1393.57,-19.4558"/>
<polygon fill="black" stroke="black" points="1393.64,-22.9551 1403.58,-19.2681 1393.51,-15.9563 1393.64,-22.9551"/>
</g>
<!-- N37&#45;&gt;N9 -->
<g id="edge37" class="edge"><title>N37&#45;&gt;N9</title>
<path fill="none" stroke="black" d="M1657.52,-149.776C1652.45,-147.438 1646.92,-145.293 1641.54,-144 1389.28,-83.3328 731.599,-143.229 474.545,-108 469.045,-107.246 463.346,-106.232 457.689,-105.072"/>
<polygon fill="black" stroke="black" points="458.12,-101.584 447.602,-102.853 456.616,-108.42 458.12,-101.584"/>
</g>
<!-- N38 -->
<g id="node39" class="node"><title>N38</title>
<ellipse fill="none" stroke="black" cx="1677.54" cy="-90" rx="40.0939" ry="18"/>
<text text-anchor="middle" x="1677.54" y="-86.3" font-family="Times,serif" font-size="14.00">matches</text>
</g>
<!-- N37&#45;&gt;N38 -->
<g id="edge36" class="edge"><title>N37&#45;&gt;N38</title>
<path fill="none" stroke="black" d="M1677.54,-143.697C1677.54,-135.983 1677.54,-126.712 1677.54,-118.112"/>
<polygon fill="black" stroke="black" points="1681.05,-118.104 1677.54,-108.104 1674.05,-118.104 1681.05,-118.104"/>
</g>
<!-- N39 -->
<g id="node40" class="node"><title>N39</title>
<ellipse fill="none" stroke="black" cx="1189.54" cy="-450" rx="27.8951" ry="18"/>
<text text-anchor="middle" x="1189.54" y="-446.3" font-family="Times,serif" font-size="14.00">crust</text>
</g>
<!-- N39&#45;&gt;N6 -->
<g id="edge40" class="edge"><title>N39&#45;&gt;N6</title>
<path fill="none" stroke="black" d="M1189.54,-431.697C1189.54,-423.983 1189.54,-414.712 1189.54,-406.112"/>
<polygon fill="black" stroke="black" points="1193.05,-406.104 1189.54,-396.104 1186.05,-406.104 1193.05,-406.104"/>
</g>
<!-- N39&#45;&gt;N8 -->
<g id="edge47" class="edge"><title>N39&#45;&gt;N8</title>
<path fill="none" stroke="black" d="M1217.25,-447.264C1270.15,-443.986 1389.24,-436.785 1489.54,-432 1592.73,-427.078 2322.16,-433.15 2418.54,-396 2441.8,-387.036 2439.33,-371.31 2461.54,-360 2520.33,-330.064 2552.18,-362.79 2605.54,-324 2636.07,-301.811 2640.14,-288.274 2650.54,-252 2656.33,-231.836 2654.86,-208.059 2652.2,-190.155"/>
<polygon fill="black" stroke="black" points="2655.62,-189.381 2650.5,-180.108 2648.72,-190.553 2655.62,-189.381"/>
</g>
<!-- N39&#45;&gt;N9 -->
<g id="edge44" class="edge"><title>N39&#45;&gt;N9</title>
<path fill="none" stroke="black" d="M1161.9,-447.106C1020.7,-437.071 386.545,-387.519 386.545,-307 386.545,-307 386.545,-307 386.545,-233 386.545,-192.86 394.096,-146.897 399.677,-118.405"/>
<polygon fill="black" stroke="black" points="403.151,-118.883 401.7,-108.388 396.29,-117.498 403.151,-118.883"/>
</g>
<!-- N39&#45;&gt;N10 -->
<g id="edge39" class="edge"><title>N39&#45;&gt;N10</title>
<path fill="none" stroke="black" d="M1212.71,-439.515C1237.89,-429.124 1279.27,-411.823 1314.54,-396 1348.65,-380.702 1354.83,-371.027 1390.54,-360 1488.57,-329.733 1518.69,-347.512 1618.54,-324 1670.26,-311.823 1680.34,-297.897 1732.54,-288 1846.79,-266.341 2148.19,-299.002 2254.54,-252 2286.34,-237.946 2313.84,-208.107 2330.52,-186.858"/>
<polygon fill="black" stroke="black" points="2333.51,-188.705 2336.78,-178.627 2327.94,-184.467 2333.51,-188.705"/>
</g>
<!-- N39&#45;&gt;N11 -->
<g id="edge38" class="edge"><title>N39&#45;&gt;N11</title>
<path fill="none" stroke="black" d="M1170.79,-436.379C1158.5,-426.9 1143.47,-412.711 1136.54,-396 1118.1,-351.464 1113.28,-283.613 1157.54,-216 1197.6,-154.82 1279.08,-118.298 1325.05,-101.713"/>
<polygon fill="black" stroke="black" points="1326.28,-104.99 1334.57,-98.3827 1323.97,-98.3831 1326.28,-104.99"/>
</g>
<!-- N39&#45;&gt;N12 -->
<g id="edge41" class="edge"><title>N39&#45;&gt;N12</title>
<path fill="none" stroke="black" d="M1217.25,-447.251C1270.15,-443.95 1389.23,-436.713 1489.54,-432 1596.72,-426.965 2355.1,-436.301 2454.54,-396 2476.71,-387.016 2473.45,-371.268 2494.54,-360 2551.97,-329.327 2579.99,-356.26 2636.54,-324 2698.71,-288.539 2753.2,-222.366 2779.61,-186.901"/>
<polygon fill="black" stroke="black" points="2782.62,-188.718 2785.71,-178.584 2776.98,-184.578 2782.62,-188.718"/>
</g>
<!-- N39&#45;&gt;N13 -->
<g id="edge50" class="edge"><title>N39&#45;&gt;N13</title>
<path fill="none" stroke="black" d="M1215.01,-442.47C1252.49,-432.778 1324.65,-413.812 1385.54,-396 1389.8,-394.756 1394.23,-393.423 1398.64,-392.07"/>
<polygon fill="black" stroke="black" points="1399.69,-395.411 1408.2,-389.106 1397.61,-388.725 1399.69,-395.411"/>
</g>
<!-- N39&#45;&gt;N14 -->
<g id="edge46" class="edge"><title>N39&#45;&gt;N14</title>
<path fill="none" stroke="black" d="M1162.46,-444.782C1105.22,-435.861 967.762,-414.387 852.545,-396 831.986,-392.719 809.172,-389.031 790.075,-385.931"/>
<polygon fill="black" stroke="black" points="790.605,-382.471 780.174,-384.322 789.483,-389.38 790.605,-382.471"/>
</g>
<!-- N39&#45;&gt;N15 -->
<g id="edge48" class="edge"><title>N39&#45;&gt;N15</title>
<path fill="none" stroke="black" d="M1162.28,-445.779C1113.61,-439.54 1008.96,-423.908 924.545,-396 922.625,-395.365 920.675,-394.654 918.725,-393.891"/>
<polygon fill="black" stroke="black" points="919.701,-390.502 909.131,-389.773 916.94,-396.934 919.701,-390.502"/>
</g>
<!-- N39&#45;&gt;N16 -->
<g id="edge43" class="edge"><title>N39&#45;&gt;N16</title>
<path fill="none" stroke="black" d="M1212.71,-439.515C1237.89,-429.124 1279.27,-411.823 1314.54,-396 1348.65,-380.702 1354.72,-370.65 1390.54,-360 1504.05,-326.257 1540.87,-357.177 1654.54,-324 1691.2,-313.303 1695.48,-297.16 1732.54,-288 2030.66,-214.329 2124.76,-326.977 2422.54,-252 2424.72,-251.452 2426.93,-250.768 2429.12,-249.993"/>
<polygon fill="black" stroke="black" points="2430.58,-253.179 2438.5,-246.143 2427.92,-246.703 2430.58,-253.179"/>
</g>
<!-- N39&#45;&gt;N19 -->
<g id="edge42" class="edge"><title>N39&#45;&gt;N19</title>
<path fill="none" stroke="black" d="M1206.71,-435.503C1220.09,-424.978 1238.86,-410.216 1253.85,-398.42"/>
<polygon fill="black" stroke="black" points="1256.04,-401.151 1261.74,-392.218 1251.72,-395.649 1256.04,-401.151"/>
</g>
<!-- N39&#45;&gt;N34 -->
<g id="edge45" class="edge"><title>N39&#45;&gt;N34</title>
<path fill="none" stroke="black" d="M1165.39,-440.417C1134.07,-429.287 1078.76,-409.636 1039.14,-395.558"/>
<polygon fill="black" stroke="black" points="1040.28,-392.248 1029.69,-392.197 1037.94,-398.844 1040.28,-392.248"/>
</g>
<!-- N40 -->
<g id="node41" class="node"><title>N40</title>
<ellipse fill="none" stroke="black" cx="211.545" cy="-18" rx="27" ry="18"/>
<text text-anchor="middle" x="211.545" y="-14.3" font-family="Times,serif" font-size="14.00">libc</text>
</g>
<!-- N39&#45;&gt;N40 -->
<g id="edge49" class="edge"><title>N39&#45;&gt;N40</title>
<path fill="none" stroke="black" d="M1161.7,-448.122C1047.53,-444.334 615.027,-428.118 482.545,-396 384.029,-372.117 272.545,-408.369 272.545,-307 272.545,-307 272.545,-307 272.545,-161 272.545,-116.645 247.108,-70.361 229.086,-43.1355"/>
<polygon fill="black" stroke="black" points="231.833,-40.9515 223.306,-34.6634 226.051,-44.8966 231.833,-40.9515"/>
</g>
<!-- N41&#45;&gt;N40 -->
<g id="edge51" class="edge"><title>N41&#45;&gt;N40</title>
<path fill="none" stroke="black" d="M493.424,-77.8344C487.228,-75.7402 480.713,-73.6831 474.545,-72 394.462,-50.1463 298.416,-33.0335 247.447,-24.6523"/>
<polygon fill="black" stroke="black" points="248.007,-21.1975 237.575,-23.0457 246.883,-28.1066 248.007,-21.1975"/>
</g>
<!-- N43 -->
<g id="node44" class="node"><title>N43</title>
<ellipse fill="none" stroke="black" cx="1203.54" cy="-234" rx="37.0935" ry="18"/>
<text text-anchor="middle" x="1203.54" y="-230.3" font-family="Times,serif" font-size="14.00">bitflags</text>
</g>
<!-- N44&#45;&gt;N9 -->
<g id="edge86" class="edge"><title>N44&#45;&gt;N9</title>
<path fill="none" stroke="black" d="M1161.44,-301.029C1099.82,-291.456 949.192,-266.804 931.545,-252 891.964,-218.795 930.006,-174.825 888.545,-144 814.436,-88.9016 565.651,-123.091 474.545,-108 469.22,-107.118 463.7,-106.041 458.207,-104.861"/>
<polygon fill="black" stroke="black" points="458.921,-101.435 448.396,-102.647 457.38,-108.263 458.921,-101.435"/>
</g>
<!-- N44&#45;&gt;N16 -->
<g id="edge85" class="edge"><title>N44&#45;&gt;N16</title>
<path fill="none" stroke="black" d="M1207.57,-293.773C1212.64,-291.435 1218.17,-289.291 1223.54,-288 1482.75,-225.777 2163.34,-314.223 2422.54,-252 2424.73,-251.476 2426.94,-250.81 2429.13,-250.049"/>
<polygon fill="black" stroke="black" points="2430.58,-253.24 2438.52,-246.227 2427.94,-246.757 2430.58,-253.24"/>
</g>
<!-- N45&#45;&gt;N4 -->
<g id="edge103" class="edge"><title>N45&#45;&gt;N4</title>
<path fill="none" stroke="black" d="M1238.04,-294.536C1208.81,-280.208 1159.86,-255.816 1157.54,-252 1149.24,-238.325 1150.92,-230.566 1157.54,-216 1204.05,-113.683 1334.73,-53.9239 1396.88,-30.5182"/>
<polygon fill="black" stroke="black" points="1398.42,-33.6816 1406.6,-26.9462 1396.01,-27.1114 1398.42,-33.6816"/>
</g>
<!-- N45&#45;&gt;N43 -->
<g id="edge104" class="edge"><title>N45&#45;&gt;N43</title>
<path fill="none" stroke="black" d="M1247.39,-289.811C1240.19,-280.8 1230.89,-269.177 1222.71,-258.955"/>
<polygon fill="black" stroke="black" points="1225.43,-256.756 1216.45,-251.134 1219.97,-261.129 1225.43,-256.756"/>
</g>
<!-- N46 -->
<g id="node47" class="node"><title>N46</title>
<ellipse fill="none" stroke="black" cx="2273.54" cy="-306" rx="62.2891" ry="18"/>
<text text-anchor="middle" x="2273.54" y="-302.3" font-family="Times,serif" font-size="14.00">message_filter</text>
</g>
<!-- N46&#45;&gt;N8 -->
<g id="edge60" class="edge"><title>N46&#45;&gt;N8</title>
<path fill="none" stroke="black" d="M2327.14,-296.709C2372.76,-288.587 2439.46,-274.166 2494.54,-252 2541.34,-233.173 2590.93,-201.661 2620.29,-181.626"/>
<polygon fill="black" stroke="black" points="2622.49,-184.364 2628.73,-175.803 2618.51,-178.602 2622.49,-184.364"/>
</g>
<!-- N46&#45;&gt;N16 -->
<g id="edge61" class="edge"><title>N46&#45;&gt;N16</title>
<path fill="none" stroke="black" d="M2313.48,-291.999C2343.72,-281.865 2386.13,-267.032 2422.54,-252 2424.37,-251.248 2426.23,-250.453 2428.1,-249.634"/>
<polygon fill="black" stroke="black" points="2429.72,-252.741 2437.38,-245.422 2426.83,-246.367 2429.72,-252.741"/>
</g>
<!-- N47&#45;&gt;N41 -->
<g id="edge62" class="edge"><title>N47&#45;&gt;N41</title>
<path fill="none" stroke="black" d="M570.089,-144.411C562.382,-135.567 552.764,-124.531 544.276,-114.789"/>
<polygon fill="black" stroke="black" points="546.686,-112.228 537.477,-106.988 541.409,-116.827 546.686,-112.228"/>
</g>
<!-- N48&#45;&gt;N9 -->
<g id="edge67" class="edge"><title>N48&#45;&gt;N9</title>
<path fill="none" stroke="black" d="M98.048,-149.674C105.832,-147.684 113.919,-145.707 121.545,-144 197.963,-126.899 286.801,-110.944 344.488,-101.098"/>
<polygon fill="black" stroke="black" points="345.26,-104.517 354.533,-99.3913 344.088,-97.6157 345.26,-104.517"/>
</g>
<!-- N48&#45;&gt;N40 -->
<g id="edge68" class="edge"><title>N48&#45;&gt;N40</title>
<path fill="none" stroke="black" d="M91.0064,-147.557C111.136,-138.512 136.12,-125.112 154.545,-108 173.983,-89.9477 189.645,-63.9 199.597,-44.6452"/>
<polygon fill="black" stroke="black" points="202.808,-46.0493 204.143,-35.5388 196.545,-42.9228 202.808,-46.0493"/>
</g>
<!-- N49 -->
<g id="node50" class="node"><title>N49</title>
<ellipse fill="none" stroke="black" cx="85.545" cy="-90" rx="60.3893" ry="18"/>
<text text-anchor="middle" x="85.545" y="-86.3" font-family="Times,serif" font-size="14.00">libsodium&#45;sys</text>
</g>
<!-- N48&#45;&gt;N49 -->
<g id="edge66" class="edge"><title>N48&#45;&gt;N49</title>
<path fill="none" stroke="black" d="M63.5651,-144.055C66.8291,-136.176 70.7896,-126.617 74.4446,-117.794"/>
<polygon fill="black" stroke="black" points="77.7941,-118.853 78.3881,-108.275 71.3271,-116.174 77.7941,-118.853"/>
</g>
<!-- N49&#45;&gt;N40 -->
<g id="edge105" class="edge"><title>N49&#45;&gt;N40</title>
<path fill="none" stroke="black" d="M112.885,-73.811C133.439,-62.3923 161.543,-46.7788 182.499,-35.1364"/>
<polygon fill="black" stroke="black" points="184.244,-38.1712 191.286,-30.2552 180.844,-32.0521 184.244,-38.1712"/>
</g>
<!-- N57 -->
<g id="node58" class="node"><title>N57</title>
<ellipse fill="none" stroke="black" cx="85.545" cy="-18" rx="49.2915" ry="18"/>
<text text-anchor="middle" x="85.545" y="-14.3" font-family="Times,serif" font-size="14.00">pkg&#45;config</text>
</g>
<!-- N49&#45;&gt;N57 -->
<g id="edge106" class="edge"><title>N49&#45;&gt;N57</title>
<path fill="none" stroke="black" d="M85.545,-71.6966C85.545,-63.9827 85.545,-54.7125 85.545,-46.1124"/>
<polygon fill="black" stroke="black" points="89.0451,-46.1043 85.545,-36.1043 82.0451,-46.1044 89.0451,-46.1043"/>
</g>
<!-- N50&#45;&gt;N8 -->
<g id="edge70" class="edge"><title>N50&#45;&gt;N8</title>
<path fill="none" stroke="black" d="M1704.19,-221.544C1710.11,-219.336 1716.46,-217.307 1722.54,-216 2010.2,-154.222 2089.85,-197.489 2383.54,-180 2464.14,-175.201 2558.58,-168.941 2609.49,-165.514"/>
<polygon fill="black" stroke="black" points="2609.93,-168.993 2619.67,-164.827 2609.46,-162.008 2609.93,-168.993"/>
</g>
<!-- N50&#45;&gt;N37 -->
<g id="edge71" class="edge"><title>N50&#45;&gt;N37</title>
<path fill="none" stroke="black" d="M1678.3,-215.697C1678.19,-207.983 1678.06,-198.712 1677.93,-190.112"/>
<polygon fill="black" stroke="black" points="1681.43,-190.053 1677.79,-180.104 1674.43,-190.153 1681.43,-190.053"/>
</g>
<!-- N51&#45;&gt;N11 -->
<g id="edge113" class="edge"><title>N51&#45;&gt;N11</title>
<path fill="none" stroke="black" d="M1368.5,-215.891C1370.22,-197.937 1372.1,-168.914 1369.54,-144 1368.67,-135.455 1367.01,-126.255 1365.25,-117.958"/>
<polygon fill="black" stroke="black" points="1368.63,-117.028 1363.01,-108.047 1361.8,-118.573 1368.63,-117.028"/>
</g>
<!-- N51&#45;&gt;N31 -->
<g id="edge112" class="edge"><title>N51&#45;&gt;N31</title>
<path fill="none" stroke="black" d="M1357.54,-216.411C1353,-208.042 1347.39,-197.71 1342.32,-188.37"/>
<polygon fill="black" stroke="black" points="1345.33,-186.589 1337.49,-179.47 1339.18,-189.928 1345.33,-186.589"/>
</g>
<!-- N52&#45;&gt;N11 -->
<g id="edge108" class="edge"><title>N52&#45;&gt;N11</title>
<path fill="none" stroke="black" d="M1574.9,-151.058C1568.31,-148.631 1561.2,-146.123 1554.54,-144 1498.75,-126.186 1432.82,-109.17 1393.41,-99.4201"/>
<polygon fill="black" stroke="black" points="1394.05,-95.9741 1383.51,-96.9849 1392.38,-102.772 1394.05,-95.9741"/>
</g>
<!-- N53&#45;&gt;N16 -->
<g id="edge107" class="edge"><title>N53&#45;&gt;N16</title>
<path fill="none" stroke="black" d="M2675.06,-503.947C2673.53,-473.337 2667.25,-407.808 2641.54,-360 2609.52,-300.422 2535.17,-263.722 2491.74,-246.575"/>
<polygon fill="black" stroke="black" points="2492.78,-243.224 2482.19,-242.922 2490.28,-249.763 2492.78,-243.224"/>
</g>
<!-- N54&#45;&gt;N8 -->
<g id="edge125" class="edge"><title>N54&#45;&gt;N8</title>
<path fill="none" stroke="black" d="M1226.31,-521.398C1368.05,-522.485 1892.39,-522.367 2319.54,-468 2474.5,-448.278 2525.16,-468.456 2663.54,-396 2740.48,-355.719 2783.18,-291.082 2739.54,-216 2726.97,-194.361 2701.89,-180.822 2680.94,-172.849"/>
<polygon fill="black" stroke="black" points="2681.96,-169.496 2671.36,-169.469 2679.63,-176.097 2681.96,-169.496"/>
</g>
<!-- N54&#45;&gt;N9 -->
<g id="edge126" class="edge"><title>N54&#45;&gt;N9</title>
<path fill="none" stroke="black" d="M1153.68,-518.803C993.154,-508.501 348.545,-461.967 348.545,-379 348.545,-379 348.545,-379 348.545,-233 348.545,-189.801 371.545,-144.186 388.325,-116.655"/>
<polygon fill="black" stroke="black" points="391.38,-118.372 393.735,-108.042 385.452,-114.648 391.38,-118.372"/>
</g>
<!-- N54&#45;&gt;N11 -->
<g id="edge129" class="edge"><title>N54&#45;&gt;N11</title>
<path fill="none" stroke="black" d="M1153.12,-520.682C1080.14,-517.791 917.465,-499.472 852.545,-396 844.842,-383.723 844.792,-311.632 855.545,-288 936.484,-110.124 1218.92,-91.2976 1321.2,-90.4489"/>
<polygon fill="black" stroke="black" points="1321.38,-93.9485 1331.37,-90.4201 1321.36,-86.9485 1321.38,-93.9485"/>
</g>
<!-- N54&#45;&gt;N13 -->
<g id="edge119" class="edge"><title>N54&#45;&gt;N13</title>
<path fill="none" stroke="black" d="M1212.62,-507.896C1257.32,-482.506 1355.83,-426.552 1407.1,-397.43"/>
<polygon fill="black" stroke="black" points="1408.83,-400.469 1415.8,-392.487 1405.38,-394.383 1408.83,-400.469"/>
</g>
<!-- N54&#45;&gt;N14 -->
<g id="edge118" class="edge"><title>N54&#45;&gt;N14</title>
<path fill="none" stroke="black" d="M1153.5,-519.171C1072.01,-514.51 876.256,-500.203 819.545,-468 793.617,-453.277 773.351,-425.245 761.016,-404.559"/>
<polygon fill="black" stroke="black" points="763.919,-402.586 755.914,-395.646 757.844,-406.064 763.919,-402.586"/>
</g>
<!-- N54&#45;&gt;N15 -->
<g id="edge124" class="edge"><title>N54&#45;&gt;N15</title>
<path fill="none" stroke="black" d="M1163.96,-508.937C1116.68,-486.64 1012.41,-437.468 924.545,-396 922.764,-395.159 920.933,-394.295 919.085,-393.423"/>
<polygon fill="black" stroke="black" points="920.402,-390.174 909.865,-389.069 917.413,-396.504 920.402,-390.174"/>
</g>
<!-- N54&#45;&gt;N16 -->
<g id="edge122" class="edge"><title>N54&#45;&gt;N16</title>
<path fill="none" stroke="black" d="M1224.88,-517.586C1291.57,-510.793 1440.34,-493.961 1563.54,-468 1852.26,-407.165 1914.5,-351.925 2202.54,-288 2299.27,-266.534 2327.94,-281.439 2422.54,-252 2424.48,-251.399 2426.43,-250.714 2428.39,-249.971"/>
<polygon fill="black" stroke="black" points="2430.16,-253.025 2438,-245.904 2427.43,-246.578 2430.16,-253.025"/>
</g>
<!-- N54&#45;&gt;N17 -->
<g id="edge120" class="edge"><title>N54&#45;&gt;N17</title>
<path fill="none" stroke="black" d="M1153.4,-519.13C1065.75,-514.157 844.233,-498.829 777.545,-468 708.952,-436.291 648.466,-368.348 619.202,-331.679"/>
<polygon fill="black" stroke="black" points="621.706,-329.201 612.778,-323.498 616.201,-333.525 621.706,-329.201"/>
</g>
<!-- N54&#45;&gt;N22 -->
<g id="edge121" class="edge"><title>N54&#45;&gt;N22</title>
<path fill="none" stroke="black" d="M1226.04,-521.035C1405.53,-520.965 2189.86,-517.795 2285.54,-468 2311.56,-454.46 2330.78,-426.225 2342.24,-405.167"/>
<polygon fill="black" stroke="black" points="2345.46,-406.565 2346.95,-396.076 2339.24,-403.344 2345.46,-406.565"/>
</g>
<!-- N54&#45;&gt;N23 -->
<g id="edge127" class="edge"><title>N54&#45;&gt;N23</title>
<path fill="none" stroke="black" d="M1225.91,-520.16C1389.92,-516.212 2056.56,-498.409 2144.54,-468 2197.33,-449.755 2203.2,-429.959 2247.54,-396 2267.33,-380.846 2268.38,-371.399 2290.54,-360 2303.73,-353.22 2381.7,-333.94 2437.57,-320.605"/>
<polygon fill="black" stroke="black" points="2438.46,-323.992 2447.37,-318.272 2436.84,-317.182 2438.46,-323.992"/>
</g>
<!-- N54&#45;&gt;N39 -->
<g id="edge117" class="edge"><title>N54&#45;&gt;N39</title>
<path fill="none" stroke="black" d="M1189.54,-503.697C1189.54,-495.983 1189.54,-486.712 1189.54,-478.112"/>
<polygon fill="black" stroke="black" points="1193.05,-478.104 1189.54,-468.104 1186.05,-478.104 1193.05,-478.104"/>
</g>
<!-- N54&#45;&gt;N46 -->
<g id="edge128" class="edge"><title>N54&#45;&gt;N46</title>
<path fill="none" stroke="black" d="M1225.93,-520.336C1385.5,-517.228 2019.14,-502.781 2100.54,-468 2169.18,-438.674 2227.63,-369.727 2255.71,-332.278"/>
<polygon fill="black" stroke="black" points="2258.76,-334.043 2261.87,-323.915 2253.12,-329.892 2258.76,-334.043"/>
</g>
<!-- N58 -->
<g id="node59" class="node"><title>N58</title>
<ellipse fill="none" stroke="black" cx="187.545" cy="-162" rx="56.59" ry="18"/>
<text text-anchor="middle" x="187.545" y="-158.3" font-family="Times,serif" font-size="14.00">sodiumoxide</text>
</g>
<!-- N54&#45;&gt;N58 -->
<g id="edge123" class="edge"><title>N54&#45;&gt;N58</title>
<path fill="none" stroke="black" d="M1153.12,-520.142C999.742,-516.341 410.872,-499.784 334.545,-468 279.62,-445.128 234.545,-438.497 234.545,-379 234.545,-379 234.545,-379 234.545,-305 234.545,-262.723 215.536,-216.788 201.696,-188.946"/>
<polygon fill="black" stroke="black" points="204.731,-187.193 197.056,-179.889 198.501,-190.385 204.731,-187.193"/>
</g>
<!-- N56&#45;&gt;N25 -->
<g id="edge102" class="edge"><title>N56&#45;&gt;N25</title>
<path fill="none" stroke="black" d="M2263.12,-77.8963C2270.9,-75.9047 2278.96,-73.8693 2286.54,-72 2350.71,-56.181 2425.43,-38.7832 2470.57,-28.3832"/>
<polygon fill="black" stroke="black" points="2471.6,-31.7375 2480.56,-26.0843 2470.03,-24.9157 2471.6,-31.7375"/>
</g>
<!-- N56&#45;&gt;N26 -->
<g id="edge101" class="edge"><title>N56&#45;&gt;N26</title>
<path fill="none" stroke="black" d="M2247.79,-73.9832C2266.37,-63.7411 2291.18,-50.0656 2311.41,-38.9157"/>
<polygon fill="black" stroke="black" points="2313.28,-41.8843 2320.35,-33.9919 2309.9,-35.7539 2313.28,-41.8843"/>
</g>
<!-- N58&#45;&gt;N9 -->
<g id="edge138" class="edge"><title>N58&#45;&gt;N9</title>
<path fill="none" stroke="black" d="M225.767,-148.727C262.128,-137.051 317.002,-119.431 356.557,-106.73"/>
<polygon fill="black" stroke="black" points="357.811,-110.003 366.263,-103.614 355.671,-103.339 357.811,-110.003"/>
</g>
<!-- N58&#45;&gt;N40 -->
<g id="edge139" class="edge"><title>N58&#45;&gt;N40</title>
<path fill="none" stroke="black" d="M190.44,-143.871C194.53,-119.67 202.045,-75.2108 206.915,-46.3932"/>
<polygon fill="black" stroke="black" points="210.424,-46.6327 208.64,-36.1893 203.522,-45.4661 210.424,-46.6327"/>
</g>
<!-- N58&#45;&gt;N49 -->
<g id="edge137" class="edge"><title>N58&#45;&gt;N49</title>
<path fill="none" stroke="black" d="M164.908,-145.465C150.745,-135.745 132.303,-123.089 116.762,-112.423"/>
<polygon fill="black" stroke="black" points="118.697,-109.507 108.472,-106.734 114.736,-115.278 118.697,-109.507"/>
</g>
</g>
</svg>
